<svg width="35" height="35" viewBox="0 0 35 35" fill="none" xmlns="http://www.w3.org/2000/svg">
<path fill-rule="evenodd" clip-rule="evenodd" d="M27.2812 7.71882C27.8507 8.28834 27.8507 9.2117 27.2812 9.78122L9.78122 27.2812C9.2117 27.8507 8.28834 27.8507 7.71882 27.2812C7.14931 26.7117 7.14931 25.7883 7.71882 25.2188L25.2188 7.71882C25.7883 7.14931 26.7117 7.14931 27.2812 7.71882Z" fill="#33363F"/>
<path fill-rule="evenodd" clip-rule="evenodd" d="M7.71878 7.71882C7.14927 8.28834 7.14927 9.2117 7.71878 9.78122L25.2188 27.2812C25.7883 27.8507 26.7117 27.8507 27.2812 27.2812C27.8507 26.7117 27.8507 25.7883 27.2812 25.2188L9.78118 7.71882C9.21166 7.14931 8.2883 7.14931 7.71878 7.71882Z" fill="#33363F"/>
</svg>
