<svg width="590" height="401" viewBox="0 0 590 401" fill="none" xmlns="http://www.w3.org/2000/svg">
<path fill-rule="evenodd" clip-rule="evenodd" d="M546.149 142.135C568.092 133.833 611.061 105.64 575.408 42.8556C572.192 37.1931 568.04 31.9775 562.625 28.3604C542.037 14.6077 500.097 3.19568 449.597 38.157C434.743 18.9705 395.751 -9.10048 358.616 2.87858C339.43 9.06777 293.63 37.0429 263.922 99.43C256.495 120.473 240.527 165.902 236.07 179.27C226.824 204.44 205.045 254.59 181.772 284.506C173.913 294.609 164.905 303.791 155.933 312.937C155.033 313.855 154.132 314.773 153.233 315.691C129.345 340.1 87.666 374.096 41.1108 387.227C-16.82 403.567 -82.054 377.944 -107.43 363.089L-113 398.368C-69.0567 415.079 27.3708 447.758 61.5352 444.787C95.6995 441.816 143.851 407.652 163.657 390.941C180.368 377.325 218.245 342.294 236.07 311.1C245.973 297.484 270.606 252.055 289.916 179.27C292.392 171.225 299.2 149.562 306.627 127.281C320.862 85.1948 359.359 13.6478 399.465 64.1516C359.854 93.8597 289.916 178.528 327.051 279.535C338.152 303.956 369.358 340.42 412.103 312.344C422.989 305.194 433.384 296.774 441.479 286.571C456.878 267.164 476.073 227.824 484.876 160.703C486.114 142.435 484.876 97.5489 462.595 64.1516C487.352 52.3921 538.722 41.4991 546.149 92.0029C548.252 99.1524 547.497 112.875 546.797 125.597C546.467 131.597 546.149 137.375 546.149 142.135ZM425.285 96.5514C401.724 117.091 359.058 174.309 372.226 241.959C372.874 245.283 373.918 248.544 375.556 251.508C383.701 266.253 400.897 282.09 419.715 252.519C440.51 219.84 432.093 134.924 425.285 96.5514Z" fill="black"/>
</svg>
