<svg width="42" height="41" viewBox="0 0 42 41" fill="none" xmlns="http://www.w3.org/2000/svg">
<path d="M41.7623 11.079C41.6413 10.9067 41.4808 10.7661 41.2943 10.669C41.1078 10.5719 40.9007 10.5212 40.6906 10.5211H12.6952L10.576 3.19585C9.74498 0.311388 7.77024 0 6.96031 0H1.30991C0.585683 0 0 0.587735 0 1.31298C0 2.03823 0.586343 2.62593 1.30987 2.62593H6.95961C7.13835 2.62593 7.6838 2.62593 8.05583 3.91445L15.3459 30.7698C15.5042 31.3364 16.0193 31.7277 16.6069 31.7277H34.4135C34.9663 31.7277 35.4596 31.3806 35.6463 30.859L41.9226 12.2782C42.067 11.8756 42.007 11.4274 41.7623 11.079H41.7623ZM33.4917 29.1025H17.6011L13.4314 13.1477H38.8282L33.4917 29.1025ZM30.8938 34.3888C29.0721 34.3888 27.596 35.8684 27.596 37.6944C27.596 39.5204 29.0721 41 30.8938 41C32.7155 41 34.1915 39.5204 34.1915 37.6944C34.1915 35.8684 32.7155 34.3888 30.8938 34.3888ZM19.0218 34.3888C17.2001 34.3888 15.724 35.8684 15.724 37.6944C15.724 39.5204 17.2001 41 19.0218 41C20.8435 41 22.3196 39.5204 22.3196 37.6944C22.3196 35.8684 20.8435 34.3888 19.0218 34.3888Z" fill="currentColor"/>
</svg>
