<svg width="50" height="50" viewBox="0 0 50 50" fill="none" xmlns="http://www.w3.org/2000/svg">
<rect width="50" height="50" rx="9" fill="#EC0023"/>
<path fill-rule="evenodd" clip-rule="evenodd" d="M18.4035 9.096C20.1102 9.01777 20.6542 9 25 9C29.3466 9 29.8897 9.01866 31.5955 9.096C33.2995 9.17334 34.4631 9.44445 35.4809 9.84C36.5484 10.2419 37.5153 10.8716 38.3146 11.6853C39.1284 12.4845 39.7583 13.4516 40.16 14.5191C40.5555 15.5369 40.8257 16.7005 40.904 18.4035C40.9823 20.1102 41 20.6542 41 25C41 29.3457 40.9814 29.8897 40.904 31.5965C40.8266 33.2995 40.5555 34.4631 40.16 35.4809C39.7511 36.5325 39.2035 37.4257 38.3146 38.3146C37.5155 39.1284 36.5484 39.7583 35.4809 40.16C34.4631 40.5555 33.2995 40.8257 31.5965 40.904C29.8897 40.9823 29.3457 41 25 41C20.6542 41 20.1102 40.9814 18.4035 40.904C16.7005 40.8266 15.5369 40.5555 14.5191 40.16C13.4675 39.7511 12.5742 39.2035 11.6853 38.3146C10.8715 37.5155 10.2417 36.5484 9.84 35.4809C9.44445 34.4631 9.17423 33.2995 9.096 31.5965C9.01777 29.8897 9 29.3466 9 25C9 20.6533 9.01866 20.1102 9.096 18.4045C9.17334 16.7005 9.44445 15.5369 9.84 14.5191C10.2419 13.4517 10.8716 12.4846 11.6853 11.6853C12.4845 10.8715 13.4516 10.2417 14.5191 9.84C15.5369 9.44445 16.7005 9.17423 18.4035 9.096ZM31.4657 11.976C29.7786 11.8995 29.272 11.8827 25 11.8827C20.728 11.8827 20.2213 11.8995 18.5342 11.976C16.9742 12.0471 16.1271 12.3075 15.5635 12.5271C14.8169 12.8169 14.2835 13.1635 13.7235 13.7235C13.1645 14.2835 12.8169 14.8169 12.5271 15.5635C12.3075 16.1271 12.0471 16.9742 11.976 18.5342C11.8995 20.2213 11.8827 20.728 11.8827 25C11.8827 29.272 11.8995 29.7786 11.976 31.4657C12.0471 33.0257 12.3075 33.8729 12.5271 34.4365C12.7834 35.1315 13.1923 35.7601 13.7235 36.2765C14.2398 36.8077 14.8685 37.2166 15.5635 37.4729C16.1271 37.6925 16.9742 37.9529 18.5342 38.024C20.2213 38.1005 20.7271 38.1174 25 38.1174C29.2729 38.1174 29.7786 38.1005 31.4657 38.024C33.0257 37.9529 33.8729 37.6925 34.4365 37.4729C35.1831 37.1831 35.7165 36.8365 36.2765 36.2765C36.8077 35.7603 37.2166 35.1315 37.4729 34.4365C37.6925 33.8729 37.9529 33.0257 38.024 31.4657C38.1005 29.7786 38.1174 29.272 38.1174 25C38.1174 20.728 38.1005 20.2213 38.024 18.5342C37.9529 16.9742 37.6925 16.1271 37.4729 15.5635C37.1831 14.8169 36.8365 14.2835 36.2765 13.7235C35.7165 13.1645 35.1831 12.8169 34.4365 12.5271C33.8729 12.3075 33.0257 12.0471 31.4657 11.976ZM22.9571 29.9322C23.6048 30.2006 24.2989 30.3386 25 30.3386C26.416 30.3386 27.7738 29.7761 28.775 28.775C29.7763 27.7738 30.3388 26.4159 30.3388 25C30.3388 23.5841 29.7763 22.2262 28.775 21.225C27.7738 20.2238 26.416 19.6613 25 19.6613C24.2989 19.6613 23.6048 19.7994 22.9571 20.0677C22.3092 20.336 21.7208 20.7292 21.225 21.225C20.7293 21.7207 20.336 22.3092 20.0678 22.9569C19.7995 23.6047 19.6614 24.2989 19.6614 25C19.6614 25.7011 19.7995 26.3953 20.0678 27.0431C20.336 27.6908 20.7293 28.2793 21.225 28.775C21.7208 29.2707 22.3092 29.664 22.9571 29.9322ZM19.1848 19.1847C20.7271 17.6424 22.8189 16.776 25 16.776C27.1812 16.776 29.273 17.6424 30.8153 19.1847C32.3575 20.727 33.224 22.8189 33.224 25C33.224 27.1811 32.3575 29.2729 30.8153 30.8153C29.273 32.3575 27.1812 33.224 25 33.224C22.8189 33.224 20.7271 32.3575 19.1848 30.8153C17.6425 29.2729 16.776 27.1811 16.776 25C16.776 22.8189 17.6425 20.727 19.1848 19.1847ZM35.0476 18.0013C35.4121 17.6367 35.6169 17.1422 35.6169 16.6267C35.6169 16.1111 35.4121 15.6166 35.0476 15.252C34.6829 14.8875 34.1885 14.6827 33.6729 14.6827C33.1574 14.6827 32.6628 14.8875 32.2983 15.252C31.9337 15.6166 31.7289 16.1111 31.7289 16.6267C31.7289 17.1422 31.9337 17.6367 32.2983 18.0013C32.6628 18.3658 33.1574 18.5707 33.6729 18.5707C34.1885 18.5707 34.6829 18.3658 35.0476 18.0013Z" fill="white"/>
</svg>
