<svg width="589" height="405" viewBox="0 0 589 405" fill="none" xmlns="http://www.w3.org/2000/svg">
<mask id="mask0_589_6622" style="mask-type:alpha" maskUnits="userSpaceOnUse" x="0" y="0" width="589" height="405">
<rect width="589" height="405" fill="#D9D9D9"/>
</mask>
<g mask="url(#mask0_589_6622)">
<path fill-rule="evenodd" clip-rule="evenodd" d="M546.149 148.135C568.092 139.833 611.061 111.64 575.408 48.8556C572.192 43.1931 568.04 37.9775 562.625 34.3604C542.037 20.6077 500.097 9.19568 449.597 44.157C434.743 24.9705 395.751 -3.10048 358.616 8.87858C339.43 15.0678 293.63 43.0429 263.922 105.43C256.495 126.473 240.527 171.902 236.07 185.27C226.824 210.44 205.045 260.59 181.772 290.506C173.913 300.609 164.905 309.791 155.933 318.937C155.033 319.855 154.132 320.773 153.233 321.691C129.345 346.1 87.666 380.096 41.1108 393.227C-16.82 409.567 -82.054 383.944 -107.43 369.089L-113 404.368C-69.0567 421.079 27.3708 453.758 61.5352 450.787C95.6995 447.816 143.851 413.652 163.657 396.941C180.368 383.325 218.245 348.294 236.07 317.1C245.973 303.484 270.606 258.055 289.916 185.27C292.392 177.225 299.2 155.562 306.627 133.281C320.862 91.1948 359.359 19.6478 399.465 70.1516C359.854 99.8597 289.916 184.528 327.051 285.535C338.152 309.956 369.358 346.42 412.103 318.344C422.989 311.194 433.384 302.774 441.479 292.571C456.878 273.164 476.073 233.824 484.876 166.703C486.114 148.435 484.876 103.549 462.595 70.1516C487.352 58.3921 538.722 47.4991 546.149 98.0029C548.252 105.152 547.497 118.875 546.797 131.597C546.467 137.597 546.149 143.375 546.149 148.135ZM425.877 102.551C402.284 123.091 359.56 180.306 372.743 247.954C373.392 251.282 374.439 254.545 376.08 257.512C384.238 272.255 401.456 288.087 420.299 258.519C441.123 225.84 432.694 140.924 425.877 102.551Z" fill="#EC0023"/>
</g>
</svg>
