<svg width="115" height="19" viewBox="0 0 115 19" fill="none" xmlns="http://www.w3.org/2000/svg">
<path d="M9.88892 0L12.0218 6.56434H18.924L13.34 10.6213L15.4729 17.1857L9.88892 13.1287L4.30496 17.1857L6.43784 10.6213L0.853879 6.56434H7.75603L9.88892 0Z" fill="black"/>
<path d="M33.8889 0L36.0218 6.56434H42.924L37.34 10.6213L39.4729 17.1857L33.8889 13.1287L28.305 17.1857L30.4378 10.6213L24.8539 6.56434H31.756L33.8889 0Z" fill="black"/>
<path d="M57.3889 0L59.4095 6.56434H65.9484L60.6584 10.6213L62.679 17.1857L57.3889 13.1287L52.0988 17.1857L54.1195 10.6213L48.8294 6.56434H55.3683L57.3889 0Z" fill="black"/>
<path d="M80.8889 0L83.0218 6.56434H89.924L84.34 10.6213L86.4729 17.1857L80.8889 13.1287L75.305 17.1857L77.4378 10.6213L71.8539 6.56434H78.756L80.8889 0Z" fill="black"/>
<path d="M104.889 0L107.022 6.56434H113.924L108.34 10.6213L110.473 17.1857L104.889 13.1287L99.305 17.1857L101.438 10.6213L95.8539 6.56434H102.756L104.889 0Z" fill="#D9D9D9"/>
</svg>
