<svg width="50" height="50" viewBox="0 0 50 50" fill="none" xmlns="http://www.w3.org/2000/svg">
<rect width="50" height="50" rx="9" fill="#EC0023"/>
<path d="M40.939 15.099C39.762 15.615 38.502 15.97 37.174 16.131C38.529 15.318 39.565 14.032 40.059 12.5C38.788 13.24 37.382 13.776 35.887 14.079C34.695 12.803 32.991 12 31.1 12C27.475 12 24.537 14.937 24.537 18.557C24.537 19.078 24.6 19.578 24.709 20.052C19.256 19.797 14.422 17.177 11.189 13.219C10.621 14.183 10.298 15.303 10.298 16.522C10.298 18.803 11.459 20.803 13.214 21.979C12.141 21.948 11.131 21.651 10.246 21.162V21.241C10.246 24.422 12.506 27.074 15.506 27.678C14.959 27.823 14.375 27.907 13.782 27.907C13.361 27.907 12.959 27.866 12.558 27.792C13.402 30.396 15.818 32.292 18.698 32.349C16.459 34.104 13.621 35.15 10.563 35.15C10.042 35.15 9.522 35.125 9 35.062C11.917 36.922 15.36 38.01 19.079 38.01C31.146 38.01 37.74 28.015 37.74 19.359C37.74 19.083 37.74 18.802 37.719 18.52C39.006 17.603 40.12 16.441 41 15.124L40.939 15.099Z" fill="white"/>
</svg>
